<svg width="592" height="371" viewBox="0 0 592 371" fill="none" xmlns="http://www.w3.org/2000/svg">
<g clip-path="url(#clip0)">
<path d="M583.554 149.871C561.831 64.3134 486.773 2.55256 398.671 0.0753928C352.094 -1.23421 303.082 14.2386 267.398 68.3835C203.608 165.173 271.318 232.058 318.523 263.841C341.329 279.226 361.878 297.726 379.576 318.805C411.462 356.704 472.802 403.799 545.856 330.008C598.806 276.524 598.023 206.861 583.554 149.871Z" fill="#F2F2F2"/>
<path d="M81.5321 214.736C80.9469 213.868 80.3715 212.977 79.8219 212.087L80.7096 211.537C81.2519 212.415 81.8196 213.295 82.3969 214.151L81.5321 214.736Z" fill="#3F3D56"/>
<path d="M76.6751 206.485C75.7071 204.582 74.8074 202.616 74.0012 200.642L74.9669 200.246C75.7626 202.193 76.6501 204.133 77.6051 206.01L76.6751 206.485ZM71.82 194.597C71.1797 192.562 70.6169 190.474 70.1467 188.392L71.1649 188.162C71.6284 190.216 72.1836 192.275 72.8153 194.283L71.82 194.597ZM68.9927 182.07C68.6969 179.961 68.4849 177.809 68.3621 175.676L69.4042 175.615C69.525 177.721 69.7344 179.844 70.0262 181.925L68.9927 182.07ZM69.2967 169.275L68.2535 169.25C68.3037 167.113 68.4423 164.956 68.6653 162.839L69.7034 162.949C69.4832 165.038 69.3464 167.166 69.2967 169.275V169.275ZM70.626 156.678L69.6007 156.483C69.9982 154.386 70.4882 152.281 71.0571 150.225L72.0631 150.504C71.5015 152.532 71.0182 154.609 70.626 156.678V156.678ZM74.0063 144.471L73.0273 144.109C73.7652 142.107 74.5966 140.11 75.4984 138.174L76.4442 138.616C75.5544 140.526 74.7342 142.496 74.0063 144.471V144.471ZM216.941 141.24C216.125 139.302 215.217 137.373 214.242 135.506L215.167 135.021C216.155 136.914 217.075 138.869 217.902 140.834L216.941 141.24ZM79.3569 132.984L78.4508 132.466C79.5077 130.614 80.6556 128.782 81.8626 127.021L82.7229 127.613C81.5322 129.35 80.3996 131.157 79.3569 132.984ZM211.08 130.013C209.956 128.235 208.744 126.481 207.477 124.801L208.31 124.171C209.594 125.875 210.822 127.652 211.961 129.454L211.08 130.013ZM86.5182 122.537L85.7089 121.876C87.0553 120.221 88.4863 118.603 89.9629 117.065L90.7151 117.789C89.2584 119.307 87.8462 120.904 86.5182 122.537ZM203.46 119.901C202.06 118.329 200.578 116.797 199.055 115.346L199.774 114.589C201.318 116.059 202.82 117.612 204.239 119.205L203.46 119.901ZM95.2855 113.402L94.595 112.618C96.1919 111.206 97.8672 109.843 99.5744 108.567L100.199 109.404C98.5141 110.664 96.8612 112.009 95.2855 113.402ZM194.293 111.168C192.656 109.847 190.944 108.577 189.205 107.395L189.791 106.529C191.554 107.728 193.289 109.015 194.948 110.354L194.293 111.168ZM105.421 105.825L104.868 104.939C106.675 103.807 108.55 102.737 110.441 101.759L110.919 102.688C109.054 103.653 107.204 104.708 105.421 105.825ZM183.824 104.053C181.991 103.016 180.094 102.045 178.187 101.166L178.623 100.216C180.556 101.107 182.479 102.092 184.337 103.142L183.824 104.053ZM116.656 100.018L116.255 99.0523C118.222 98.234 120.246 97.4885 122.272 96.8367L122.591 97.832C120.593 98.475 118.596 99.2103 116.656 100.018ZM172.33 98.7565C170.355 98.0383 168.324 97.3941 166.294 96.842L166.568 95.8334C168.625 96.3929 170.684 97.0457 172.686 97.7739L172.33 98.7565ZM128.692 96.1458L128.457 95.1275C130.529 94.6461 132.65 94.2457 134.76 93.9369L134.911 94.9713C132.829 95.276 130.737 95.6711 128.692 96.1458V96.1458ZM160.121 95.4358C158.058 95.055 155.949 94.7554 153.854 94.5456L153.958 93.5053C156.082 93.7181 158.219 94.0216 160.31 94.4077L160.121 95.4358ZM141.205 94.3141L141.14 93.2707C143.262 93.1365 145.427 93.0888 147.554 93.1273L147.535 94.1727C145.434 94.1342 143.3 94.1819 141.205 94.3141V94.3141Z" fill="#3F3D56"/>
<path d="M220.084 150.235C219.804 149.24 219.501 148.237 219.181 147.255L220.173 146.93C220.497 147.927 220.805 148.943 221.088 149.952L220.084 150.235Z" fill="#3F3D56"/>
<path d="M213.72 91.6927H212.676C212.676 90.6466 212.695 89.5851 212.731 88.5382L213.774 88.5744C213.738 89.6096 213.72 90.6586 213.72 91.6927Z" fill="#3F3D56"/>
<path d="M214.216 82.2883L213.178 82.1775C213.402 80.0722 213.705 77.9498 214.078 75.8692L215.105 76.054C214.736 78.1101 214.437 80.2077 214.216 82.2883ZM216.438 69.8998L215.427 69.6415C215.95 67.5898 216.553 65.5327 217.222 63.5272L218.212 63.858C217.551 65.84 216.955 67.8726 216.438 69.8998V69.8998ZM382.886 58.8707C382.106 56.9307 381.245 54.9951 380.328 53.1182L381.265 52.6588C382.193 54.5582 383.064 56.5168 383.854 58.4802L382.886 58.8707ZM220.418 57.9544L219.454 57.5527C220.265 55.5992 221.159 53.6491 222.111 51.7564L223.043 52.2265C222.103 54.097 221.219 56.0239 220.418 57.9544V57.9544ZM377.363 47.5641C376.314 45.7576 375.185 43.9652 374.009 42.2369L374.871 41.6478C376.062 43.3968 377.203 45.2104 378.265 47.0383L377.363 47.5641ZM226.072 46.7032L225.176 46.1673C226.257 44.3521 227.421 42.5508 228.633 40.8135L229.488 41.4122C228.29 43.1291 227.141 44.9093 226.072 46.7032H226.072ZM370.282 37.163C368.984 35.5222 367.612 33.909 366.204 32.3679L366.974 31.662C368.399 33.2214 369.787 34.8536 371.101 36.5138L370.282 37.163ZM233.273 36.38L232.462 35.7215C233.793 34.0769 235.2 32.4603 236.644 30.9167L237.405 31.6314C235.979 33.1571 234.588 34.7548 233.273 36.38ZM361.796 27.8758C360.279 26.4368 358.692 25.0352 357.078 23.7093L357.74 22.9012C359.373 24.2424 360.978 25.661 362.513 27.1167L361.796 27.8758ZM241.865 27.1903L241.155 26.4231C242.705 24.9859 244.326 23.586 245.975 22.2627L246.628 23.0784C244.999 24.3864 243.396 25.7697 241.865 27.1902V27.1903ZM352.077 19.8901C350.371 18.6819 348.601 17.5207 346.815 16.4385L347.355 15.5442C349.163 16.6391 350.954 17.8142 352.679 19.0367L352.077 19.8901ZM251.67 19.3174L251.077 18.4573C252.814 17.2557 254.618 16.1019 256.437 15.0274L256.967 15.9278C255.169 16.9898 253.387 18.1301 251.67 19.3174V19.3174ZM341.321 13.3736C339.46 12.4216 337.542 11.5263 335.62 10.7119L336.027 9.74916C337.972 10.573 339.913 11.4793 341.796 12.4425L341.321 13.3736ZM262.492 12.9277L262.027 11.9916C263.918 11.0513 265.867 10.168 267.82 9.36634L268.216 10.3336C266.286 11.1258 264.36 11.9987 262.492 12.9277V12.9277ZM329.743 8.46872C327.769 7.79544 325.742 7.18546 323.719 6.65588L323.983 5.64469C326.03 6.1804 328.082 6.79778 330.079 7.47897L329.743 8.46872ZM274.11 8.15939L273.785 7.16607C275.791 6.50759 277.847 5.91369 279.898 5.40093L280.151 6.41518C278.124 6.9218 276.092 7.50855 274.11 8.15937L274.11 8.15939ZM317.582 5.28405C315.53 4.90248 313.437 4.59087 311.363 4.35759L311.479 3.31884C313.579 3.55492 315.696 3.87012 317.773 4.25603L317.582 5.28405ZM286.302 5.11203L286.123 4.08195C288.202 3.71928 290.323 3.42754 292.426 3.21446L292.531 4.25474C290.452 4.46503 288.357 4.75343 286.302 5.11202L286.302 5.11203ZM305.093 3.87829C303.003 3.7933 300.879 3.78207 298.804 3.84409L298.773 2.79922C300.872 2.73644 303.021 2.74741 305.136 2.83393L305.093 3.87829Z" fill="#3F3D56"/>
<path d="M385.939 67.841C385.66 66.8461 385.358 65.8418 385.043 64.8554L386.037 64.5369C386.356 65.5348 386.661 66.5511 386.944 67.5577L385.939 67.841Z" fill="#3F3D56"/>
<path d="M80.9219 227.711C90.5226 227.711 98.3056 227.127 98.3056 226.405C98.3056 225.684 90.5226 225.099 80.9219 225.099C71.3211 225.099 63.5381 225.684 63.5381 226.405C63.5381 227.127 71.3211 227.711 80.9219 227.711Z" fill="#36CC90"/>
<path d="M219.557 164.592C229.158 164.592 236.941 164.007 236.941 163.286C236.941 162.565 229.158 161.98 219.557 161.98C209.957 161.98 202.174 162.565 202.174 163.286C202.174 164.007 209.957 164.592 219.557 164.592Z" fill="#36CC90"/>
<path d="M390.788 98.8607C400.388 98.8607 408.171 98.2761 408.171 97.5548C408.171 96.8336 400.388 96.2489 390.788 96.2489C381.187 96.2489 373.404 96.8336 373.404 97.5548C373.404 98.2761 381.187 98.8607 390.788 98.8607Z" fill="#36CC90"/>
<path d="M383.9 93.2675L331.627 145.626L332.365 146.365L384.638 94.0066L383.9 93.2675Z" fill="#3F3D56"/>
<path d="M316.472 152.316H228.684V153.361H316.472V152.316Z" fill="#3F3D56"/>
<path d="M212.661 159.443L163.561 208.623L164.298 209.363L213.399 160.182L212.661 159.443Z" fill="#3F3D56"/>
<path d="M148.719 215.435H90.0482V216.481H148.719V215.435Z" fill="#3F3D56"/>
<path d="M74.0996 222.052L15.7983 280.449L16.5363 281.188L74.8375 222.791L74.0996 222.052Z" fill="#3F3D56"/>
<path d="M80.9219 225.622C79.0136 225.622 77.1481 225.055 75.5614 223.994C73.9747 222.932 72.738 221.422 72.0077 219.656C71.2774 217.891 71.0863 215.947 71.4586 214.073C71.8308 212.198 72.7497 210.476 74.0991 209.124C75.4484 207.773 77.1676 206.852 79.0392 206.479C80.9108 206.107 82.8508 206.298 84.6139 207.029C86.3769 207.761 87.8838 208.999 88.944 210.589C90.0042 212.178 90.5701 214.047 90.5701 215.958C90.5672 218.52 89.5498 220.977 87.741 222.788C85.9323 224.6 83.4799 225.619 80.9219 225.622V225.622ZM80.9219 207.339C79.22 207.339 77.5564 207.844 76.1413 208.792C74.7262 209.739 73.6233 211.085 72.972 212.659C72.3206 214.234 72.1502 215.967 72.4822 217.639C72.8142 219.311 73.6337 220.847 74.8371 222.052C76.0405 223.258 77.5737 224.079 79.2428 224.411C80.912 224.744 82.6422 224.573 84.2145 223.921C85.7868 223.268 87.1307 222.164 88.0762 220.746C89.0217 219.329 89.5264 217.663 89.5264 215.958C89.5238 213.673 88.6164 211.482 87.0033 209.866C85.3902 208.251 83.2032 207.342 80.9219 207.339V207.339Z" fill="#3F3D56"/>
<path d="M157.845 225.622C155.937 225.622 154.071 225.055 152.485 223.993C150.898 222.932 149.661 221.422 148.931 219.656C148.201 217.89 148.01 215.947 148.382 214.073C148.754 212.198 149.673 210.476 151.023 209.124C152.372 207.773 154.091 206.852 155.963 206.479C157.834 206.107 159.774 206.298 161.537 207.029C163.3 207.761 164.807 209 165.867 210.589C166.928 212.178 167.493 214.047 167.493 215.958C167.491 218.52 166.473 220.977 164.664 222.788C162.856 224.6 160.403 225.619 157.845 225.622ZM157.845 207.339C156.143 207.339 154.479 207.845 153.064 208.792C151.649 209.739 150.546 211.085 149.895 212.66C149.244 214.235 149.074 215.968 149.406 217.639C149.738 219.311 150.557 220.847 151.76 222.052C152.964 223.258 154.497 224.079 156.166 224.411C157.835 224.744 159.566 224.573 161.138 223.921C162.71 223.268 164.054 222.164 165 220.746C165.945 219.329 166.45 217.663 166.45 215.958C166.447 213.673 165.54 211.482 163.927 209.866C162.313 208.251 160.126 207.342 157.845 207.339V207.339Z" fill="#3F3D56"/>
<path d="M219.557 162.503C217.649 162.503 215.784 161.936 214.197 160.874C212.61 159.812 211.374 158.303 210.644 156.537C209.913 154.771 209.722 152.828 210.095 150.953C210.467 149.079 211.386 147.357 212.735 146.005C214.084 144.654 215.804 143.733 217.675 143.36C219.547 142.987 221.487 143.179 223.25 143.91C225.013 144.642 226.52 145.88 227.58 147.469C228.64 149.059 229.206 150.927 229.206 152.839C229.203 155.401 228.185 157.857 226.377 159.669C224.568 161.481 222.115 162.5 219.557 162.503V162.503ZM219.557 144.22C217.856 144.22 216.192 144.725 214.777 145.673C213.362 146.62 212.259 147.966 211.608 149.541C210.957 151.115 210.786 152.848 211.118 154.52C211.45 156.192 212.27 157.728 213.473 158.933C214.677 160.138 216.21 160.959 217.879 161.292C219.548 161.624 221.278 161.454 222.85 160.801C224.423 160.149 225.767 159.044 226.712 157.627C227.658 156.21 228.162 154.543 228.162 152.839C228.16 150.554 227.252 148.363 225.639 146.747C224.026 145.131 221.839 144.222 219.557 144.22V144.22Z" fill="#3F3D56"/>
<path d="M325.598 162.503C323.69 162.503 321.825 161.936 320.238 160.874C318.651 159.812 317.415 158.303 316.684 156.537C315.954 154.771 315.763 152.828 316.135 150.953C316.508 149.079 317.427 147.357 318.776 146.005C320.125 144.654 321.844 143.733 323.716 143.36C325.588 142.987 327.528 143.179 329.291 143.91C331.054 144.642 332.56 145.88 333.621 147.469C334.681 149.059 335.247 150.927 335.247 152.839C335.244 155.401 334.226 157.857 332.418 159.669C330.609 161.481 328.156 162.5 325.598 162.503V162.503ZM325.598 144.22C323.896 144.22 322.233 144.725 320.818 145.673C319.403 146.62 318.3 147.966 317.649 149.541C316.997 151.115 316.827 152.848 317.159 154.52C317.491 156.192 318.311 157.728 319.514 158.933C320.717 160.138 322.251 160.959 323.92 161.292C325.589 161.624 327.319 161.454 328.891 160.801C330.464 160.149 331.807 159.044 332.753 157.627C333.698 156.21 334.203 154.543 334.203 152.839C334.2 150.553 333.293 148.363 331.68 146.747C330.067 145.131 327.88 144.222 325.598 144.22V144.22Z" fill="#3F3D56"/>
<path d="M390.787 96.7715C388.879 96.7715 387.014 96.2047 385.427 95.1428C383.841 94.0809 382.604 92.5716 381.874 90.8057C381.143 89.0398 380.952 87.0967 381.325 85.2221C381.697 83.3474 382.616 81.6255 383.965 80.2739C385.315 78.9224 387.034 78.002 388.905 77.6291C390.777 77.2562 392.717 77.4475 394.48 78.179C396.243 78.9104 397.75 80.1491 398.81 81.7383C399.87 83.3275 400.436 85.196 400.436 87.1073C400.433 89.6695 399.416 92.126 397.607 93.9378C395.798 95.7495 393.346 96.7687 390.787 96.7715V96.7715ZM390.787 78.4888C389.086 78.4888 387.422 78.9943 386.007 79.9413C384.592 80.8884 383.489 82.2345 382.838 83.8093C382.187 85.3842 382.016 87.1172 382.348 88.789C382.68 90.4609 383.5 91.9966 384.703 93.2019C385.907 94.4072 387.44 95.2281 389.109 95.5606C390.778 95.8931 392.508 95.7224 394.081 95.0701C395.653 94.4177 396.997 93.313 397.942 91.8956C398.888 90.4783 399.392 88.812 399.392 87.1073C399.39 84.8223 398.482 82.6316 396.869 81.0159C395.256 79.4002 393.069 78.4913 390.787 78.4887V78.4888Z" fill="#3F3D56"/>
<path d="M9.64845 297.012C7.74016 297.012 5.87471 296.446 4.288 295.384C2.70129 294.322 1.46458 292.813 0.734277 291.047C0.00397071 289.281 -0.187137 287.338 0.185121 285.463C0.55738 283.588 1.47628 281.866 2.82563 280.515C4.17498 279.163 5.89417 278.242 7.76579 277.87C9.63741 277.497 11.5774 277.688 13.3404 278.419C15.1035 279.151 16.6104 280.39 17.6706 281.979C18.7308 283.568 19.2966 285.437 19.2966 287.348C19.2938 289.91 18.2763 292.367 16.4676 294.178C14.6588 295.99 12.2065 297.009 9.64845 297.012V297.012ZM9.64845 278.729C7.94658 278.729 6.28292 279.235 4.86784 280.182C3.45276 281.129 2.34983 282.475 1.69851 284.05C1.0472 285.625 0.87676 287.357 1.20875 289.029C1.54074 290.701 2.36024 292.237 3.56363 293.442C4.76701 294.648 6.30023 295.469 7.9694 295.801C9.63857 296.134 11.3687 295.963 12.941 295.311C14.5134 294.659 15.8573 293.554 16.8028 292.137C17.7483 290.719 18.253 289.053 18.253 287.348C18.2503 285.063 17.343 282.872 15.7299 281.257C14.1168 279.641 11.9297 278.732 9.64845 278.729V278.729Z" fill="#3F3D56"/>
<path d="M80.9219 158.933C78.639 158.933 76.3785 159.383 74.2694 160.258C72.1603 161.133 70.2439 162.416 68.6297 164.033C67.0154 165.65 65.735 167.569 64.8613 169.682C63.9877 171.794 63.5381 174.058 63.5381 176.345C63.5381 185.962 80.9219 217.699 80.9219 217.699C80.9219 217.699 98.3056 185.962 98.3056 176.345C98.3056 174.058 97.856 171.794 96.9824 169.682C96.1087 167.569 94.8283 165.65 93.214 164.033C91.5998 162.416 89.6834 161.133 87.5743 160.258C85.4652 159.383 83.2047 158.933 80.9219 158.933V158.933ZM80.9219 185.486C79.1168 185.486 77.3523 184.95 75.8515 183.946C74.3506 182.941 73.1809 181.514 72.4901 179.843C71.7993 178.173 71.6186 176.335 71.9708 174.562C72.3229 172.788 73.1921 171.16 74.4685 169.881C75.7448 168.603 77.371 167.732 79.1414 167.379C80.9117 167.027 82.7468 167.208 84.4144 167.9C86.082 168.591 87.5074 169.763 88.5102 171.266C89.5131 172.77 90.0483 174.537 90.0483 176.345C90.0483 178.77 89.0868 181.095 87.3752 182.809C85.6637 184.523 83.3423 185.486 80.9219 185.486V185.486Z" fill="#36CC90"/>
<path d="M219.557 93.6371C214.947 93.6371 210.525 95.4716 207.265 98.737C204.005 102.002 202.174 106.431 202.174 111.049C202.174 120.666 219.557 152.403 219.557 152.403C219.557 152.403 236.941 120.666 236.941 111.049C236.941 108.763 236.492 106.498 235.618 104.386C234.744 102.273 233.464 100.354 231.85 98.737C230.235 97.1201 228.319 95.8375 226.21 94.9625C224.101 94.0875 221.84 93.6371 219.557 93.6371V93.6371ZM219.557 120.191C217.752 120.191 215.988 119.655 214.487 118.65C212.986 117.646 211.816 116.218 211.126 114.548C210.435 112.877 210.254 111.039 210.606 109.266C210.958 107.493 211.828 105.864 213.104 104.585C214.38 103.307 216.007 102.436 217.777 102.084C219.547 101.731 221.382 101.912 223.05 102.604C224.718 103.296 226.143 104.467 227.146 105.971C228.149 107.474 228.684 109.241 228.684 111.049C228.684 113.474 227.722 115.799 226.011 117.513C224.299 119.228 221.978 120.191 219.557 120.191V120.191Z" fill="#36CC90"/>
<path d="M560.828 369.723H324.155V371H560.828V369.723Z" fill="#2F2E41"/>
<path d="M519.457 37.8597C515.777 48.7713 510.136 58.7134 498.637 58.7134C487.139 58.7134 478.465 49.3586 477.818 37.8597C476.99 23.1664 486.874 16.9451 498.637 17.0059C512.534 17.0778 523.823 24.9102 519.457 37.8597Z" fill="#2F2E41"/>
<path d="M518.909 36.2134H477.818V88.3477H518.909V36.2134Z" fill="#2F2E41"/>
<path d="M520.116 75.0537H523.611C523.611 75.0537 532.154 85.9451 528.271 100.726C524.387 115.507 527.494 118.23 527.494 118.23C527.494 118.23 532.55 134.237 527.113 158.354C521.676 182.47 532.154 189.024 532.154 189.024L522.446 169.575L517.009 118.23L520.116 75.0537Z" fill="#575A89"/>
<path opacity="0.1" d="M520.116 76.3333H523.611C523.611 76.3333 532.154 87.2246 528.271 102.006C524.387 116.787 527.494 119.51 527.494 119.51C527.494 119.51 532.55 135.517 527.113 159.633C521.676 183.75 532.154 190.304 532.154 190.304L522.446 170.855L517.009 119.51L520.116 76.3333Z" fill="black"/>
<path d="M507.883 56.1883C507.883 56.1883 504.776 68.6356 506.329 68.6356C507.883 68.6356 513.32 75.2482 513.32 75.2482L516.815 88.0844L514.096 97.4199L504.776 95.475L493.126 82.6387L489.631 79.138L486.524 67.8576C486.524 67.8576 490.407 63.1899 487.689 59.3001C484.971 55.4103 507.883 56.1883 507.883 56.1883Z" fill="#FBBEBE"/>
<path opacity="0.1" d="M507.883 56.1883C507.883 56.1883 504.776 68.6356 506.329 68.6356C507.883 68.6356 513.32 75.2482 513.32 75.2482L516.815 88.0844L514.096 97.4199L504.776 95.475L493.126 82.6387L489.631 79.138L486.524 67.8576C486.524 67.8576 490.407 63.1899 487.689 59.3001C484.971 55.4103 507.883 56.1883 507.883 56.1883Z" fill="black"/>
<path d="M413.904 90.8073L405.36 76.8041C405.36 76.8041 396.138 56.3655 389.536 63.7561C382.934 71.1467 399.535 86.1396 399.535 86.1396L408.079 97.4199L413.904 90.8073Z" fill="#FBBEBE"/>
<path d="M527.3 212.557L521.087 258.068C521.087 258.068 521.863 261.569 514.096 274.405C506.329 287.241 485.359 315.248 485.359 315.248L479.146 303.578C479.146 303.578 486.524 266.625 499.339 258.846L497.786 202.833L527.3 212.557Z" fill="#FBBEBE"/>
<path opacity="0.1" d="M527.3 212.557L521.087 258.068C521.087 258.068 521.863 261.569 514.096 274.405C506.329 287.241 485.359 315.248 485.359 315.248L479.146 303.578C479.146 303.578 486.524 266.625 499.339 258.846L497.786 202.833L527.3 212.557Z" fill="black"/>
<path d="M479.146 298.91L487.689 315.247C487.689 315.247 480.699 335.085 483.417 337.03C486.136 338.975 489.631 356.479 482.252 354.534C474.874 352.589 469.049 344.81 469.049 343.643C469.049 342.476 473.32 326.139 470.99 322.249C468.66 318.359 467.107 317.192 467.107 317.192L461.282 326.917L459.34 325.75L469.049 309.413C469.049 309.413 470.214 306.301 474.874 304.356L479.146 298.91Z" fill="#2F2E41"/>
<path opacity="0.1" d="M479.146 298.91L487.689 315.247C487.689 315.247 480.699 335.085 483.417 337.03C486.136 338.975 489.631 356.479 482.252 354.534C474.874 352.589 469.049 344.81 469.049 343.643C469.049 342.476 473.32 326.139 470.99 322.249C468.66 318.359 467.107 317.192 467.107 317.192L461.282 326.917L459.34 325.75L469.049 309.413C469.049 309.413 470.214 306.301 474.874 304.356L479.146 298.91Z" fill="black"/>
<path d="M497.877 206.1C497.877 206.1 500.893 249.121 494.291 260.402V316.414L485.359 317.581C485.359 317.581 467.321 287.927 473.923 258.754C480.525 229.58 467.107 202.833 467.107 202.833L497.877 206.1Z" fill="#FBBEBE"/>
<path d="M495.65 65.7182C504.658 65.7182 511.96 58.4039 511.96 49.3811C511.96 40.3584 504.658 33.0441 495.65 33.0441C486.642 33.0441 479.34 40.3584 479.34 49.3811C479.34 58.4039 486.642 65.7182 495.65 65.7182Z" fill="#FBBEBE"/>
<path d="M512.155 92.3632L495.844 71.7473L486.524 65.5237L482.641 70.5804L471.767 73.6922C471.767 73.6922 464.777 75.2481 457.398 83.8056C450.02 92.3632 436.816 97.4199 436.816 97.4199L425.943 95.475C425.943 95.475 413.127 89.6403 413.127 88.0844C413.127 86.5285 401.865 98.5868 404.584 103.255C407.302 107.922 413.127 113.757 416.234 116.869C419.341 119.981 420.506 128.927 439.535 126.204C458.563 123.481 465.554 114.146 465.554 114.146C465.554 114.146 469.049 132.039 479.145 135.54C489.242 139.041 522.251 141.374 522.251 141.374L529.242 118.036C529.242 118.036 537.008 107.922 526.523 93.1411C526.523 93.1411 526.322 84.8745 525.195 79.3735C524.756 77.2339 524.178 75.5127 523.416 74.8592C520.698 72.5253 506.329 68.6355 506.329 68.6355C506.329 68.6355 508.659 76.4151 509.825 76.8041C510.99 77.193 513.708 90.4183 512.155 92.3632Z" fill="#575A89"/>
<path d="M459.923 208.473C479.479 207.112 490.866 210.321 495.945 212.767C496.89 213.195 497.779 213.736 498.594 214.378C498.967 214.693 499.145 214.938 499.145 215.086C499.145 216.253 525.941 218.586 535.649 216.253C545.358 213.919 529.048 163.741 524.776 159.462C520.504 155.183 522.807 139.523 522.807 139.523C522.807 139.523 514.29 137.679 511.96 138.457C509.63 139.235 497.592 137.29 493.32 134.956C489.048 132.622 483.611 134.178 480.116 133.4C478.555 133.054 477.767 133.638 477.375 134.392C476.764 135.524 475.842 136.457 474.718 137.08C466.474 141.837 459.857 174.729 454.874 192.914C449.437 212.752 459.923 208.473 459.923 208.473Z" fill="#2F2E41"/>
<path d="M495.844 312.914L497.398 321.471C497.398 321.471 505.553 333.141 503.223 342.865C503.223 342.865 505.164 355.701 512.155 359.202C519.145 362.703 513.32 370.871 506.718 370.482C500.116 370.093 493.902 370.871 493.126 368.927C492.349 366.982 487.689 347.922 487.689 347.922L486.414 370.226L482.531 370.615L483.806 344.81C483.806 344.81 480.699 338.975 484.971 329.251L483.893 314.324C483.893 314.324 494.679 316.803 495.844 312.914Z" fill="#2F2E41"/>
<path opacity="0.1" d="M495.945 212.767C496.89 213.195 497.779 213.736 498.594 214.378C498.799 210.702 499.988 188.472 498.563 188.83L495.945 212.767Z" fill="black"/>
<path d="M488.898 26.8841C488.898 26.8841 488.717 25.8769 481.653 28.5305C474.588 31.184 470.354 50.7658 473.886 62.2644C475.309 66.8983 474.151 70.2394 472.261 72.577C465.169 81.3493 467.961 94.5251 478.292 99.0361C478.583 99.1635 478.881 99.2893 479.184 99.4137L483.6 102.067C483.6 102.067 477.971 94.6491 480.788 85.16C483.234 77.0748 483.536 68.491 481.664 60.2534C481.341 58.8638 480.974 57.4314 480.557 55.9696C477.025 43.5865 478.743 45.0165 491.106 32.6334C491.106 32.6334 498.17 37.9405 504.352 40.594C510.533 43.2475 515.831 45.901 511.416 54.7461C507.001 63.5912 496.404 71.5518 503.468 83.0504C510.533 94.5489 511.416 90.1264 510.533 94.549L509.65 98.9715L514.948 93.6644L511.416 100.741C511.416 100.741 522.896 100.74 526.428 91.8954L528.194 93.6644C528.194 93.6644 535.259 81.2813 522.013 69.7827C522.013 69.7827 517.598 67.1292 523.779 58.2841C529.96 49.439 525.213 30.4221 517.265 26.8841C509.318 23.3461 488.898 26.8841 488.898 26.8841Z" fill="#2F2E41"/>
<path d="M498.637 21.3962C503.176 21.3962 506.855 17.7107 506.855 13.1645C506.855 8.61821 503.176 4.93274 498.637 4.93274C494.098 4.93274 490.419 8.61821 490.419 13.1645C490.419 17.7107 494.098 21.3962 498.637 21.3962Z" fill="#2F2E41"/>
<path d="M488.775 8.77421C488.775 6.73361 489.532 4.76579 490.899 3.25247C492.266 1.73915 494.145 0.788186 496.172 0.58405C495.901 0.557152 495.627 0.54248 495.35 0.54248C493.17 0.54248 491.08 1.40975 489.539 2.9535C487.997 4.49725 487.132 6.59102 487.132 8.77421C487.132 10.9574 487.997 13.0512 489.539 14.5949C491.08 16.1387 493.17 17.0059 495.35 17.0059C495.627 17.0059 495.901 16.9913 496.172 16.9644C494.145 16.7602 492.266 15.8093 490.899 14.2959C489.532 12.7826 488.775 10.8148 488.775 8.77421V8.77421Z" fill="#2F2E41"/>
<path d="M390.788 30.9531C388.505 30.9531 386.244 31.4035 384.135 32.2786C382.026 33.1536 380.11 34.4362 378.495 36.053C376.881 37.6699 375.601 39.5894 374.727 41.702C373.853 43.8145 373.404 46.0787 373.404 48.3653C373.404 57.9818 390.788 89.7194 390.788 89.7194C390.788 89.7194 408.171 57.9818 408.171 48.3653C408.171 46.0787 407.722 43.8145 406.848 41.702C405.974 39.5894 404.694 37.6699 403.08 36.053C401.466 34.4362 399.549 33.1536 397.44 32.2786C395.331 31.4035 393.07 30.9531 390.788 30.9531V30.9531ZM390.788 57.5068C388.983 57.5068 387.218 56.9706 385.717 55.9662C384.216 54.9617 383.047 53.534 382.356 51.8636C381.665 50.1933 381.484 48.3552 381.836 46.582C382.189 44.8087 383.058 43.1799 384.334 41.9014C385.611 40.623 387.237 39.7523 389.007 39.3996C390.777 39.0469 392.612 39.2279 394.28 39.9198C395.948 40.6117 397.373 41.7834 398.376 43.2867C399.379 44.79 399.914 46.5574 399.914 48.3654C399.914 50.7898 398.953 53.115 397.241 54.8293C395.529 56.5437 393.208 57.5068 390.788 57.5068V57.5068Z" fill="#36CC90"/>
<path d="M250.65 354.935C255.845 354.935 260.057 350.717 260.057 345.513C260.057 340.31 255.845 336.091 250.65 336.091C245.455 336.091 241.244 340.31 241.244 345.513C241.244 350.717 245.455 354.935 250.65 354.935Z" fill="#F2F2F2"/>
<path d="M309.173 315.082C314.368 315.082 318.579 310.864 318.579 305.66C318.579 300.457 314.368 296.239 309.173 296.239C303.978 296.239 299.767 300.457 299.767 305.66C299.767 310.864 303.978 315.082 309.173 315.082Z" fill="#F2F2F2"/>
<path d="M236.8 277.974C241.995 277.974 246.206 273.756 246.206 268.552C246.206 263.349 241.995 259.13 236.8 259.13C231.605 259.13 227.394 263.349 227.394 268.552C227.394 273.756 231.605 277.974 236.8 277.974Z" fill="#F2F2F2"/>
</g>
<defs>
<clipPath id="clip0">
<rect width="592" height="371" fill="white"/>
</clipPath>
</defs>
</svg>
